<?xml version="1.0" encoding="UTF-8"?>
<svg id="Layer_1" data-name="Layer 1" xmlns="http://www.w3.org/2000/svg" xmlns:xlink="http://www.w3.org/1999/xlink" viewBox="0 0 286.18 181.11">
  <defs>
    <style>
      .cls-1 {
        font-family: Lato-Black, Lato;
        font-size: 13.74px;
        font-weight: 800;
      }

      .cls-1, .cls-2 {
        fill: #fff;
      }

      .cls-3 {
        fill: url(#linear-gradient);
      }

      .cls-3, .cls-2 {
        stroke-width: 0px;
      }

      .cls-4 {
        letter-spacing: .75em;
      }

      .cls-5 {
        letter-spacing: .73em;
      }

      .cls-6 {
        letter-spacing: .75em;
      }
    </style>
    <linearGradient id="linear-gradient" x1="11.36" y1="34.98" x2="29.93" y2="34.98" gradientUnits="userSpaceOnUse">
      <stop offset="0" stop-color="#89774b"/>
      <stop offset="1" stop-color="#ebd562"/>
    </linearGradient>
  </defs>
  <g>
    <path class="cls-2" d="M274.35,53.34c-3.93-8.33-12.41-13.71-21.61-13.71h-52.47v17.22h52.47c2.57,0,4.94,1.51,6.04,3.84.81,1.71.86,3.63.16,5.38-.71,1.75-2.06,3.09-3.82,3.76l-42.45,16.19c-7.38,2.81-12.33,10.01-12.33,17.84l-.26,30.74,17.22.15.26-30.82c0-.8.5-1.54,1.25-1.82l42.45-16.19c6.2-2.36,11.18-7.25,13.66-13.41,2.48-6.17,2.28-13.15-.56-19.16Z"/>
    <path class="cls-2" d="M170.09,88.66l.02-.05-49.24-18.78c-1.76-.67-3.12-2-3.82-3.76-.71-1.76-.65-3.67.16-5.38,1.1-2.33,3.47-3.84,6.04-3.84h54.39v-17.22h-54.39c-9.2,0-17.68,5.38-21.61,13.71-2.84,6.01-3.04,13-.56,19.16,2.48,6.16,7.46,11.05,13.66,13.41l49.11,18.73-.02.05c1.76.67,3.12,2,3.82,3.75.71,1.76.65,3.67-.16,5.38-1.1,2.33-3.47,3.84-6.04,3.84h-77.67s0,17.24,0,17.24h77.67c9.2-.01,17.68-5.4,21.61-13.72,2.84-6.01,3.04-13,.56-19.17-2.46-6.12-7.39-10.98-13.53-13.36Z"/>
    <path class="cls-2" d="M52.91,116.67v-35.86h.1v-22.7c0-.47.17-.91.46-1.25h31.41v-17.22h-35.28l-1.48.57c-7.38,2.81-12.33,10.01-12.33,17.91v9.41h-.1v49.15c0,7.9,4.96,15.1,12.33,17.91l1.48.57h11.91v-17.22h-8.04c-.29-.35-.46-.79-.46-1.25Z"/>
  </g>
  <ellipse class="cls-3" cx="20.64" cy="34.98" rx="9.28" ry="9.3"/>
  <text class="cls-1" transform="translate(44.66 168.19)"><tspan class="cls-4" x="0" y="0">ITSP G</tspan><tspan class="cls-5" x="103.14" y="0">R</tspan><tspan class="cls-6" x="122.24" y="0">OUP</tspan></text>
</svg>